<svg width="15" height="14" viewBox="0 0 15 14" fill="none" xmlns="http://www.w3.org/2000/svg">
<path d="M1.27875 0H11.3899L14.2731 2.88322C14.419 3.02905 14.5009 3.22685 14.501 3.43311V13.2222C14.501 13.4285 14.419 13.6263 14.2732 13.7722C14.1273 13.9181 13.9295 14 13.7232 14H1.27875C1.07247 14 0.874644 13.9181 0.728782 13.7722C0.582921 13.6263 0.500977 13.4285 0.500977 13.2222V0.777778C0.500977 0.571498 0.582921 0.373667 0.728782 0.227806C0.874644 0.0819442 1.07247 0 1.27875 0ZM7.50098 11.6667C8.11982 11.6667 8.71331 11.4208 9.15089 10.9832C9.58848 10.5457 9.83431 9.95217 9.83431 9.33333C9.83431 8.71449 9.58848 8.121 9.15089 7.68342C8.71331 7.24583 8.11982 7 7.50098 7C6.88214 7 6.28865 7.24583 5.85106 7.68342C5.41348 8.121 5.16764 8.71449 5.16764 9.33333C5.16764 9.95217 5.41348 10.5457 5.85106 10.9832C6.28865 11.4208 6.88214 11.6667 7.50098 11.6667ZM2.05653 1.55556V4.66667H9.83431V1.55556H2.05653Z" fill="white"/>
</svg>
